<?xml version="1.0" encoding="UTF-8" standalone="no"?>
<!DOCTYPE svg PUBLIC "-//W3C//DTD SVG 1.1//EN" "http://www.w3.org/Graphics/SVG/1.1/DTD/svg11.dtd">
<svg width="100%" height="100%" viewBox="0 0 2138 752" version="1.1" xmlns="http://www.w3.org/2000/svg" xmlns:xlink="http://www.w3.org/1999/xlink" xml:space="preserve" xmlns:serif="http://www.serif.com/" style="fill-rule:evenodd;clip-rule:evenodd;stroke-linecap:round;stroke-linejoin:round;stroke-miterlimit:1.5;">
    <g transform="matrix(1,0,0,1,-26776.784395,-6090.682576)">
        <g transform="matrix(1,0,0,1,20208.301737,2671.592851)">
            <g transform="matrix(4.824902,0,0,4.824902,5271.479181,1732.472313)">
                <circle cx="342.78" cy="490.715" r="13.29" style="fill:rgb(255,242,223);stroke:rgb(255,242,223);stroke-width:2.76px;"/>
            </g>
            <g transform="matrix(4.824902,0,0,4.824902,5572.391452,1732.472313)">
                <circle cx="342.78" cy="490.715" r="13.29" style="fill:rgb(255,242,223);stroke:rgb(255,242,223);stroke-width:2.76px;"/>
            </g>
            <g transform="matrix(17.088409,0,0,17.088409,1267.063907,-2913.044556)">
                <g transform="matrix(36.574499,0,0,36.574499,437.650499,401.861616)">
                </g>
                <text x="361.429px" y="401.862px" style="font-family:'Panton-Trial-SemiBold', 'Panton-Trial';font-weight:500;font-size:36.574px;fill:rgb(255,242,223);">zo<tspan x="399.101px 418.047px " y="401.862px 401.862px ">va</tspan></text>
            </g>
            <g transform="matrix(4.824902,0,0,4.824902,4169.777179,2122.862783)">
                <path d="M571.117,372.545L528.998,286.092L504.06,275.562" style="fill:none;stroke:rgb(255,242,223);stroke-width:13.82px;"/>
            </g>
            <g transform="matrix(1,0,0,1,26.421467,2611.96728)">
                <path d="M6898.989,928.193L7236.486,928.193L6901.937,1308.39L7236.486,1308.39" style="fill:none;stroke:rgb(255,242,223);stroke-width:66.67px;"/>
            </g>
        </g>
    </g>
</svg>
